<svg id="Layer_1" data-name="Layer 1" xmlns="http://www.w3.org/2000/svg" xmlns:xlink="http://www.w3.org/1999/xlink" viewBox="0 0 848.67 218.93"><defs><style>.cls-1{fill:none;}.cls-2{fill:#fff;}.cls-3{fill:url(#linear-gradient);}.cls-4{clip-path:url(#clip-path);}.cls-5{fill:url(#linear-gradient-2);}.cls-6{fill:url(#linear-gradient-3);}</style><linearGradient id="linear-gradient" x1="718.44" y1="5196.08" x2="718.44" y2="5378.06" gradientTransform="translate(-1167.09 -2622.71) rotate(-25)" gradientUnits="userSpaceOnUse"><stop offset="0" stop-color="gold"/><stop offset="0.53" stop-color="#fa0"/><stop offset="1" stop-color="#ff7b00"/></linearGradient><clipPath id="clip-path" transform="translate(-1606.22 -1739.69)"><rect class="cls-1" x="1711.63" y="1732.74" width="42.76" height="226.54" transform="translate(-617.79 905.36) rotate(-25)"/></clipPath><linearGradient id="linear-gradient-2" x1="718.44" y1="5196.08" x2="718.44" y2="5378.06" gradientTransform="translate(-1167.09 -2622.71) rotate(-25)" gradientUnits="userSpaceOnUse"><stop offset="0" stop-color="#ffac00"/><stop offset="0.53" stop-color="#ff9a00"/><stop offset="1" stop-color="#ff7b00"/></linearGradient><linearGradient id="linear-gradient-3" x1="1715.83" y1="1850.73" x2="1715.83" y2="1993.5" gradientUnits="userSpaceOnUse"><stop offset="0" stop-color="#00edff"/><stop offset="0.53" stop-color="#00d2ff"/><stop offset="1" stop-color="#00bae5"/></linearGradient></defs><title>descro_logo</title><path class="cls-2" d="M1947,1898.93l-0.17-8.53a45.78,45.78,0,0,1-5.22,4.7,32.29,32.29,0,0,1-19.31,6.26,37.59,37.59,0,0,1-30.28-16c-4.35-6.26-8.53-12.72-8.53-29.07,0-5.22,0-26.64,17.23-39.34a33.39,33.39,0,0,1,20.71-6.79c12.7,0,20.36,6.44,23.84,9.22v-24.44h26.1v104H1947Zm-5.57-61.8a14.5,14.5,0,0,0-14.27-6.78,16.73,16.73,0,0,0-11.83,7.66c-3.65,5.39-4.7,11.32-4.7,17.76,0,1.74-.17,11.5,5,19.15a14.18,14.18,0,0,0,12.18,6.61,15.84,15.84,0,0,0,9.39-3.31c9.22-7.31,8.7-20.2,8.7-22.46S1946.48,1844.78,1941.43,1837.13Z" transform="translate(-1606.22 -1739.69)"/><path class="cls-2" d="M2016.08,1857a22.09,22.09,0,0,0,.35,5.4c2.09,10.61,9.57,17.23,20.36,17.23a25.21,25.21,0,0,0,8.7-1.57c9-3.13,13.05-12.35,14.27-14.62l20.19,10.44a102.68,102.68,0,0,1-7.66,10.27c-13.4,14.79-30.8,16-37.58,16a54.89,54.89,0,0,1-16.36-2.44c-20.19-6.26-29.58-24-29.58-44.55,0-5.57.35-22.45,11.66-35.5,5.57-6.26,15.14-14.44,35-14.44,6.09,0,24.18.7,35.5,16.53,10.27,14.09,9.92,32.89,10.09,37.24h-64.9Zm27.32-32.89a17.78,17.78,0,0,0-8.18-1.74,18.33,18.33,0,0,0-16.88,11,30.81,30.81,0,0,0-2.09,7h37.06C2053,1837.3,2052.44,1828.08,2043.39,1824.08Z" transform="translate(-1606.22 -1739.69)"/><path class="cls-2" d="M2173.72,1882.54c-8,12-24.71,16.7-38.46,16.7-4.87,0-20-.87-33.23-9a67.07,67.07,0,0,1-10.79-8.53l17.05-15.31a37.87,37.87,0,0,0,4.87,4.35c5.92,4.7,14.09,8.18,21.58,8.18a30.66,30.66,0,0,0,6.61-.87c4-.87,9.39-3.13,9.39-8.18-0.17-6.26-8.18-7-17.92-8.53-19-3.13-27.67-7.48-32.37-16.53a25.75,25.75,0,0,1-2.79-11.31,28.12,28.12,0,0,1,3.83-13.57c4.18-7.48,14.44-16.88,34.63-16.88a67.76,67.76,0,0,1,32.89,8.7c2.61,1.57,5,3.13,7.48,4.87L2160,1831.91a49.25,49.25,0,0,0-4.87-3.48c-4.87-3-12.18-5.57-17.92-5.57a24.44,24.44,0,0,0-8.53,1.57c-3.31,1.57-4.18,3.83-4.18,5.39a5.62,5.62,0,0,0,2.44,4.35c2.61,1.74,9.22,2.61,12.18,3.31l12,2.61c14.44,3.13,27,10.44,27,27.32A27.35,27.35,0,0,1,2173.72,1882.54Z" transform="translate(-1606.22 -1739.69)"/><path class="cls-2" d="M2270.63,1884.11a44.57,44.57,0,0,1-34.1,15.66,48.14,48.14,0,0,1-21.23-5c-17.05-8.35-23.84-24.54-23.84-42.63a56.46,56.46,0,0,1,4.52-23c10.27-23.84,32.71-25.75,41.06-25.75,7.13,0,23.14,1.39,35.32,16.7,1,1.39,1.74,2.44,3.48,5.22L2256,1836.6a30.32,30.32,0,0,0-3-5.22c-1.56-1.91-6.61-7.48-14.79-7.48a15.77,15.77,0,0,0-9.74,3.13c-9.22,7-9.57,22.45-9.57,24.19,0,7.83,2.61,17.92,8.7,23a17.86,17.86,0,0,0,11.48,4.35,18.56,18.56,0,0,0,15-8.18,22.2,22.2,0,0,0,2.61-5.39l20.18,10.44A79,79,0,0,1,2270.63,1884.11Z" transform="translate(-1606.22 -1739.69)"/><path class="cls-2" d="M2338,1830a48.89,48.89,0,0,0-8.35,1.91c-7.13,2.44-8.35,7-8.35,13.75v51.16h-26.62V1806h25.93v9.4a33.55,33.55,0,0,1,10.61-6.79,50.83,50.83,0,0,1,15.66-3.65v23.67Z" transform="translate(-1606.22 -1739.69)"/><path class="cls-2" d="M2438.88,1889c-5.22,4.35-15.83,10.61-32.89,10.61-4.7,0-23.14-.87-35.67-13.05-5.39-5.22-13.05-16.36-13.05-35.32,0-5.22.35-20,10.62-32.37,6.26-7.48,18.79-16.88,41.76-15.49,10.62,0.52,20,3,28.54,9.74,11.31,9.22,16.7,23.66,16.7,38.28C2454.89,1871.93,2445.15,1883.76,2438.88,1889Zm-20.71-61.08c-2.44-1.74-6.09-3.48-13.22-3.48a22.72,22.72,0,0,0-10.09,2.61c-4.87,2.78-10.61,10.61-10.61,24a36,36,0,0,0,4.7,18.27c2.09,3.13,7.31,8.87,17.4,8.87,14.79,0,21.4-12.36,21.4-25.93C2427.75,1838.52,2423.4,1831.56,2418.18,1827.9Z" transform="translate(-1606.22 -1739.69)"/><circle class="cls-2" cx="109.46" cy="109.46" r="109.46"/><circle class="cls-2" cx="109.46" cy="109.46" r="95.24"/><path class="cls-3" d="M1676.44,1775.29c-18,8.38-5.52,66.76,13.14,106.79,10.29,22.06,23.58,39.88,36.25,50.18a13.35,13.35,0,0,0,14.06,1.77l17.35-8.09a13.26,13.26,0,0,0,7.68-11.74c0.29-16.34-4.81-38-15.13-60.18C1731.13,1814,1694.41,1766.91,1676.44,1775.29Z" transform="translate(-1606.22 -1739.69)"/><g class="cls-4"><path class="cls-5" d="M1676.44,1775.29c-18,8.38-5.52,66.76,13.14,106.79,10.29,22.06,23.58,39.88,36.25,50.18a13.35,13.35,0,0,0,14.06,1.77l17.35-8.09a13.26,13.26,0,0,0,7.68-11.74c0.29-16.34-4.81-38-15.13-60.18C1731.13,1814,1694.41,1766.91,1676.44,1775.29Z" transform="translate(-1606.22 -1739.69)"/></g><path class="cls-1" d="M1647.78,1866.54c11.54,0,11.54,13.76,23.08,13.76s11.54-13.76,23.08-13.76,11.54,13.76,23.08,13.76,11.54-13.76,23.08-13.76,11.54,13.76,23.08,13.76,11.54-13.76,23.08-13.76,9.65,7.08,19.65,12.84l0.08,0a95.24,95.24,0,1,0-180.36.84C1636.24,1879.53,1636.56,1866.54,1647.78,1866.54Z" transform="translate(-1606.22 -1739.69)"/><path class="cls-6" d="M1786.28,1866.54c-11.54,0-11.54,13.76-23.08,13.76s-11.54-13.76-23.08-13.76-11.54,13.76-23.08,13.76-11.54-13.76-23.08-13.76-11.54,13.76-23.08,13.76-11.54-13.76-23.08-13.76c-11.21,0-11.53,13-22.13,13.72a95.27,95.27,0,0,0,180.36-.84l-0.08,0C1795.93,1873.61,1797.82,1866.54,1786.28,1866.54Z" transform="translate(-1606.22 -1739.69)"/></svg>